<mxfile host="app.diagrams.net" modified="2023-06-07T17:06:36.569Z" agent="Mozilla/5.0 (X11; Linux x86_64) AppleWebKit/537.36 (KHTML, like Gecko) Chrome/113.0.0.0 Safari/537.36" etag="WHidA1Cyv3uEVw9KZNLS" version="21.3.6" type="github">
  <diagram name="Page-1" id="PmOiHuo0T5l7wru5VKFK">
    <mxGraphModel dx="1362" dy="775" grid="1" gridSize="10" guides="1" tooltips="1" connect="1" arrows="1" fold="1" page="0" pageScale="1" pageWidth="850" pageHeight="1100" math="0" shadow="0">
      <root>
        <mxCell id="0" />
        <mxCell id="1" parent="0" />
        <mxCell id="fXcX4MBUzGKfJCSOtUdT-1" value="" style="group" vertex="1" connectable="0" parent="1">
          <mxGeometry x="300" y="140" width="140" height="140" as="geometry" />
        </mxCell>
        <mxCell id="fXcX4MBUzGKfJCSOtUdT-2" value="&lt;div&gt;LinOps&lt;/div&gt;10.50.23.114&lt;div&gt;student&lt;br&gt;&lt;/div&gt;&lt;div&gt;password&lt;br&gt;&lt;/div&gt;" style="whiteSpace=wrap;html=1;aspect=fixed;" vertex="1" parent="fXcX4MBUzGKfJCSOtUdT-1">
          <mxGeometry width="140" height="140" as="geometry" />
        </mxCell>
        <mxCell id="fXcX4MBUzGKfJCSOtUdT-3" value="" style="shape=umlActor;verticalLabelPosition=bottom;verticalAlign=top;html=1;outlineConnect=0;fillColor=#0000FF;fontColor=#ffffff;strokeColor=#006EAF;" vertex="1" parent="fXcX4MBUzGKfJCSOtUdT-1">
          <mxGeometry x="10" y="10" width="20" height="40" as="geometry" />
        </mxCell>
        <mxCell id="fXcX4MBUzGKfJCSOtUdT-4" value="" style="group" vertex="1" connectable="0" parent="1">
          <mxGeometry x="300" y="460" width="140" height="140" as="geometry" />
        </mxCell>
        <mxCell id="fXcX4MBUzGKfJCSOtUdT-5" value="&lt;div&gt;&lt;/div&gt;10.50.27.243&lt;div&gt;PORTS&lt;/div&gt;&lt;div&gt;22, 80&lt;/div&gt;" style="whiteSpace=wrap;html=1;aspect=fixed;" vertex="1" parent="fXcX4MBUzGKfJCSOtUdT-4">
          <mxGeometry width="140" height="140" as="geometry" />
        </mxCell>
        <mxCell id="fXcX4MBUzGKfJCSOtUdT-7" style="edgeStyle=orthogonalEdgeStyle;rounded=0;orthogonalLoop=1;jettySize=auto;html=1;entryX=0.5;entryY=0;entryDx=0;entryDy=0;" edge="1" parent="1" source="fXcX4MBUzGKfJCSOtUdT-2" target="fXcX4MBUzGKfJCSOtUdT-5">
          <mxGeometry relative="1" as="geometry" />
        </mxCell>
      </root>
    </mxGraphModel>
  </diagram>
</mxfile>
